<?xml version='1.0' encoding='utf-8'?>
<svg xmlns="http://www.w3.org/2000/svg" width="210mm" height="297mm" viewBox="0 0 210 297" version="1.1" id="svg8"> <defs id="defs2"/> <metadata id="metadata5"> </metadata> <g id="layer1"> <path style="fill:#ff2a2a;fill-rule:evenodd;stroke:none;stroke-width:0.26458332px;stroke-linecap:butt;stroke-linejoin:miter;stroke-opacity:1" d="M 160.39512,151.47917 458.27177,-20.499995 755.48263,151.86357 458.27177,323.45833 Z" id="path4514"/> <path style="fill:#2b364a;fill-rule:evenodd;stroke:none;stroke-width:0.26458332px;stroke-linecap:butt;stroke-linejoin:miter;stroke-opacity:1" d="M 229.13589,164.70833 458.27177,32.416671 687.40766,164.70834 458.27177,297 Z" id="path4508"/> <path style="fill:#800000;fill-rule:evenodd;stroke:none;stroke-width:0.26458332px;stroke-linecap:butt;stroke-linejoin:miter;stroke-opacity:1" d="M 229.13589,164.70834 206.2223,151.47917 458.27177,5.9583378 l 0,26.4583332 z" id="path4510"/> <path style="fill:#ff8080;fill-opacity:1;fill-rule:evenodd;stroke:#000000;stroke-width:0.26458332px;stroke-linecap:butt;stroke-linejoin:miter;stroke-opacity:1" d="M 687.40766,164.70834 710.32124,151.47917 458.27177,5.9583385 V 32.416671 Z" id="path4512"/> <path style="fill:#212939;fill-opacity:1;fill-rule:evenodd;stroke:none;stroke-width:0.26458332px;stroke-linecap:butt;stroke-linejoin:miter;stroke-opacity:1" d="M 458.27177,32.416671 481.18536,45.645837 252.04947,177.9375 229.13589,164.70834 Z" id="path4516"/> <path style="fill:#ff8080;fill-opacity:1;fill-rule:evenodd;stroke:none;stroke-width:0.26458332px;stroke-linecap:butt;stroke-linejoin:miter;stroke-opacity:1" d="M 160.39513,151.47917 V 177.9375 L 458.27177,349.91667 V 323.45833 Z" id="path4518"/> <path style="fill:#800000;fill-opacity:1;fill-rule:evenodd;stroke:none;stroke-width:0.26458332px;stroke-linecap:butt;stroke-linejoin:miter;stroke-opacity:1" d="m 458.27177,323.45833 v 26.45833 L 756.14842,177.9375 v -26.45833 z" id="path4520"/> <path style="fill:#e6e6e6;fill-rule:evenodd;stroke:none;stroke-width:0.99999994px;stroke-linecap:butt;stroke-linejoin:miter;stroke-opacity:1" d="M 692.82031 722.51953 L 692.82031 1722.5195 L 1299.0391 2072.5195 L 1385.6406 2022.5195 L 1645.4473 2172.5195 L 1645.4473 2272.5195 L 1732.0508 2322.5195 L 1732.0508 1322.5195 L 692.82031 722.51953 z " transform="scale(0.26458333)" id="path4522"/> <path id="path4524" d="m 733.23483,191.16667 0,264.58333 -274.96306,158.74999 V 349.91666 Z" style="fill:#cccccc;fill-rule:evenodd;stroke:none;stroke-width:0.26458332px;stroke-linecap:butt;stroke-linejoin:miter;stroke-opacity:1"/> <path style="fill:#b3b3b3;fill-rule:evenodd;stroke:none;stroke-width:0.26458332px;stroke-linecap:butt;stroke-linejoin:miter;stroke-opacity:1" d="M 458.27177,349.91667 V 376.375 l 274.96304,-158.75 v -26.45833 z" id="path4526"/> <path style="fill:#2a7fff;fill-rule:evenodd;stroke:none;stroke-width:0.26458332px;stroke-linecap:butt;stroke-linejoin:miter;stroke-opacity:1" d="m 435.35816,574.8125 v -158.75 L 366.6174,376.375 v 158.75 z" id="path4528"/> <path style="fill:#cccccc;fill-rule:evenodd;stroke:none;stroke-width:0.26458332px;stroke-linecap:butt;stroke-linejoin:miter;stroke-opacity:1;fill-opacity:1" d="M 366.6174,376.375 343.70383,363.14583 V 548.35416 L 366.6174,535.125 Z" id="path4533"/> <path style="fill:#fd2a2b;fill-rule:evenodd;stroke:none;stroke-width:0.26458332px;stroke-linecap:butt;stroke-linejoin:miter;stroke-opacity:1;fill-opacity:0.99998641" d="m 366.6174,535.125 v -26.45834 l -22.91357,13.22917 v 26.45833 z" id="path4535"/> <path style="fill:#ff8181;fill-rule:evenodd;stroke:none;stroke-width:0.26458332px;stroke-linecap:butt;stroke-linejoin:miter;stroke-opacity:1;fill-opacity:0.99846816" d="M 343.70383,548.35416 V 521.89583 L 183.3087,429.29167 V 455.75 Z" id="path4537"/> <path style="fill:#ff8181;fill-rule:evenodd;stroke:none;stroke-width:0.26458332px;stroke-linecap:butt;stroke-linejoin:miter;stroke-opacity:1;fill-opacity:0.99846816" d="M 458.27177,614.5 V 588.04166 L 435.35816,574.8125 v 26.45833 z" id="path4539"/> <path style="fill:#800000;fill-rule:evenodd;stroke:none;stroke-width:0.26458332px;stroke-linecap:butt;stroke-linejoin:miter;stroke-opacity:1;fill-opacity:1" d="M 458.27177,614.5 733.23481,455.75 V 429.29167 L 458.27177,588.04166 Z" id="path4541"/> <path style="fill:#2a7fff;fill-rule:evenodd;stroke:none;stroke-width:0.26458332px;stroke-linecap:butt;stroke-linejoin:miter;stroke-opacity:1;fill-opacity:1" d="M 320.79022,349.91667 206.22229,283.77083 V 389.60417 L 320.79022,455.75 Z" id="path4543"/> <path style="fill:#cccccc;fill-rule:evenodd;stroke:none;stroke-width:0.26458332px;stroke-linecap:butt;stroke-linejoin:miter;stroke-opacity:1;fill-opacity:1" d="M 206.22229,283.77083 229.13588,297 v 79.375 l -22.91359,13.22917 c 0,0 0,-105.83334 0,-105.83334 z" id="path4545"/> <path style="fill:#ffffff;fill-rule:evenodd;stroke:none;stroke-width:0.26458332px;stroke-linecap:butt;stroke-linejoin:miter;stroke-opacity:1" d="m 206.22229,389.60417 22.91359,-13.22917 91.65434,52.91667 V 455.75 Z" id="path4547"/> <path id="path4549" d="M 481.18536,416.0625 595.75329,349.91666 V 455.75 l -114.56793,66.14583 z" style="fill:#2a7fff;fill-opacity:1;fill-rule:evenodd;stroke:none;stroke-width:0.26458332px;stroke-linecap:butt;stroke-linejoin:miter;stroke-opacity:1"/> <path id="path4551" d="m 595.75329,349.91666 -22.91359,13.22917 v 79.375 L 595.75329,455.75 c 0,0 0,-105.83334 0,-105.83334 z" style="fill:#b3b3b3;fill-opacity:1;fill-rule:evenodd;stroke:none;stroke-width:0.26458332px;stroke-linecap:butt;stroke-linejoin:miter;stroke-opacity:1"/> <path id="path4553" d="M 595.75329,455.75 572.8397,442.52083 481.18536,495.4375 v 26.45833 z" style="fill:#ffffff;fill-rule:evenodd;stroke:none;stroke-width:0.26458332px;stroke-linecap:butt;stroke-linejoin:miter;stroke-opacity:1"/> <path style="fill:#2a7fff;fill-opacity:1;fill-rule:evenodd;stroke:none;stroke-width:0.26458332px;stroke-linecap:butt;stroke-linejoin:miter;stroke-opacity:1" d="M 595.75332,349.91667 710.32125,283.77083 V 389.60417 L 595.75332,455.75 Z" id="path4555"/> <path style="fill:#b3b3b3;fill-opacity:1;fill-rule:evenodd;stroke:none;stroke-width:0.26458332px;stroke-linecap:butt;stroke-linejoin:miter;stroke-opacity:1" d="M 710.32125,283.77083 687.40766,297 v 79.375 l 22.91359,13.22917 c 0,0 0,-105.83334 0,-105.83334 z" id="path4557"/> <path style="fill:#ffffff;fill-rule:evenodd;stroke:none;stroke-width:0.26458332px;stroke-linecap:butt;stroke-linejoin:miter;stroke-opacity:1" d="M 710.32125,389.60417 687.40766,376.375 595.75332,429.29167 V 455.75 Z" id="path4559"/> <path style="fill:#2b364a;fill-rule:evenodd;stroke:none;stroke-width:0.26458332px;stroke-linecap:butt;stroke-linejoin:miter;stroke-opacity:1;fill-opacity:1" d="M 45.827177,455.75 458.27177,693.875 870.71635,455.75 733.23481,376.375 V 455.75 L 458.27177,614.5 435.35816,601.27083 V 574.8125 L 366.6174,535.125 343.70383,548.35416 183.3087,455.75 v -79.375 z" id="path4563"/> <path style="fill:#435172;fill-rule:evenodd;stroke:none;stroke-width:0.26458332px;stroke-linecap:butt;stroke-linejoin:miter;stroke-opacity:1;fill-opacity:1" d="m 458.27177,693.875 v 26.45833 L 45.827177,482.20833 V 455.75 Z" id="path4565"/> <path id="path4567" d="m 458.27177,693.875 v 26.45833 l 412.44459,-238.125 V 455.75 Z" style="fill:#212939;fill-opacity:1;fill-rule:evenodd;stroke:none;stroke-width:0.26458332px;stroke-linecap:butt;stroke-linejoin:miter;stroke-opacity:1"/> <path style="fill:#212939;fill-rule:evenodd;stroke:none;stroke-width:0.26458332px;stroke-linecap:butt;stroke-linejoin:miter;stroke-opacity:1;fill-opacity:1" d="m 366.6174,535.125 v -26.45834 l 68.74076,39.6875 v 26.45834 z" id="path4569"/> <path style="fill:#800000;fill-opacity:1;fill-rule:evenodd;stroke:none;stroke-width:0.99999994px;stroke-linecap:butt;stroke-linejoin:miter;stroke-opacity:1" d="M 1052.6816 167.97656 A 429.32659 175.11144 37.1959 0 0 951.49414 255.86523 A 429.32659 175.11144 37.1959 0 0 952.62695 272.51953 L 782.48438 174.28711 L 695.88086 224.28711 L 782.48438 274.28711 L 782.48438 474.28711 L 1821.7148 1074.2871 L 1821.7148 774.28711 L 1666.1309 684.46094 A 429.32659 175.11144 37.1959 0 0 1667.4961 669.24805 A 429.32659 175.11144 37.1959 0 0 1309.4941 252.55664 A 429.32659 175.11144 37.1959 0 0 1052.6816 167.97656 z " transform="scale(0.26458333)" id="path4578"/> <path style="fill:#ff8080;fill-opacity:1;fill-rule:evenodd;stroke:none;stroke-width:0.26458332px;stroke-linecap:butt;stroke-linejoin:miter;stroke-opacity:1" d="m 322.74722,79.584034 a 113.59266,46.331568 37.1959 0 0 -94.72083,0.87541 113.59266,46.331568 37.1959 0 0 0.29972,4.40637 l -45.0174,-25.99081 V 138.25 L 458.27177,297 v -79.37499 l -41.16493,-23.76658 a 113.59266,46.331568 37.1959 0 0 0.36122,-4.02479 113.59266,46.331568 37.1959 0 0 -94.72084,-110.249606 z" id="path4571"/> <path style="fill:#800000;fill-rule:evenodd;stroke:none;stroke-width:0.26458332px;stroke-linecap:butt;stroke-linejoin:miter;stroke-opacity:1;fill-opacity:1" d="M 481.18535,283.77083 458.27177,270.54167 V 297 Z" id="path4580"/> <path style="fill:#ff8080;fill-opacity:1;fill-rule:evenodd;stroke:none;stroke-width:0.26458332px;stroke-linecap:butt;stroke-linejoin:miter;stroke-opacity:1" d="m 160.39512,151.47917 -45.82718,79.375 297.87665,171.97917 45.82718,-79.375 z" id="path4584"/> <path style="fill:#ff2a2a;fill-rule:evenodd;stroke:none;stroke-width:0.26458332px;stroke-linecap:butt;stroke-linejoin:miter;stroke-opacity:1;fill-opacity:1" d="M 114.56794,230.85417 V 257.3125 L 412.44459,429.29167 V 402.83333 Z" id="path4588"/> <path style="fill:#800000;fill-rule:evenodd;stroke:none;stroke-width:0.26458332px;stroke-linecap:butt;stroke-linejoin:miter;stroke-opacity:1;fill-opacity:1" d="m 458.27177,323.45833 v 79.375 l -45.82718,26.45834 v -26.45834 z" id="path4592"/> <path style="fill:#ffffff;fill-rule:evenodd;stroke:none;stroke-width:0.26458332px;stroke-linecap:butt;stroke-linejoin:miter;stroke-opacity:1" d="m 183.3087,164.70833 -45.82717,79.375 22.91359,13.22917 45.82717,-79.375 z" id="path4594"/> <path style="fill:#e6e6e6;fill-rule:evenodd;stroke:none;stroke-width:0.26458332px;stroke-linecap:butt;stroke-linejoin:miter;stroke-opacity:1" d="m 137.48153,244.08333 v 26.45834 l 22.91359,13.22916 V 257.3125 Z" id="path4596"/> <path id="path4598" d="m 229.13588,191.16667 -45.82717,79.375 22.91359,13.22917 45.82717,-79.375 z" style="fill:#ffffff;fill-rule:evenodd;stroke:none;stroke-width:0.26458332px;stroke-linecap:butt;stroke-linejoin:miter;stroke-opacity:1"/> <path id="path4600" d="m 183.30871,270.54167 v 26.45834 l 22.91359,13.22916 v -26.45833 z" style="fill:#e6e6e6;fill-rule:evenodd;stroke:none;stroke-width:0.26458332px;stroke-linecap:butt;stroke-linejoin:miter;stroke-opacity:1"/> <path style="fill:#ffffff;fill-rule:evenodd;stroke:none;stroke-width:0.26458332px;stroke-linecap:butt;stroke-linejoin:miter;stroke-opacity:1" d="M 274.96306,217.625 229.13589,297 l 22.91359,13.22917 45.82717,-79.375 z" id="path4602"/> <path style="fill:#e6e6e6;fill-rule:evenodd;stroke:none;stroke-width:0.26458332px;stroke-linecap:butt;stroke-linejoin:miter;stroke-opacity:1" d="m 229.13589,297 v 26.45834 l 22.91359,13.22916 v -26.45833 z" id="path4604"/> <path id="path4606" d="m 320.79024,244.08333 -45.82717,79.375 22.91359,13.22917 45.82717,-79.375 z" style="fill:#ffffff;fill-rule:evenodd;stroke:none;stroke-width:0.26458332px;stroke-linecap:butt;stroke-linejoin:miter;stroke-opacity:1"/> <path id="path4608" d="m 274.96307,323.45833 v 26.45834 l 22.91359,13.22916 V 336.6875 Z" style="fill:#e6e6e6;fill-rule:evenodd;stroke:none;stroke-width:0.26458332px;stroke-linecap:butt;stroke-linejoin:miter;stroke-opacity:1"/> <path style="fill:#ffffff;fill-rule:evenodd;stroke:none;stroke-width:0.26458332px;stroke-linecap:butt;stroke-linejoin:miter;stroke-opacity:1" d="m 366.61741,270.54166 -45.82717,79.375 22.91359,13.22917 45.82717,-79.375 z" id="path4610"/> <path style="fill:#e6e6e6;fill-rule:evenodd;stroke:none;stroke-width:0.26458332px;stroke-linecap:butt;stroke-linejoin:miter;stroke-opacity:1" d="M 320.79024,349.91666 V 376.375 l 22.91359,13.22916 v -26.45833 z" id="path4612"/> <path id="path4614" d="m 412.44459,297 -45.82717,79.375 22.91359,13.22917 45.82717,-79.375 z" style="fill:#ffffff;fill-rule:evenodd;stroke:none;stroke-width:0.26458332px;stroke-linecap:butt;stroke-linejoin:miter;stroke-opacity:1"/> <path id="path4616" d="m 366.61742,376.375 v 26.45834 l 22.91359,13.22916 v -26.45833 z" style="fill:#e6e6e6;fill-rule:evenodd;stroke:none;stroke-width:0.26458332px;stroke-linecap:butt;stroke-linejoin:miter;stroke-opacity:1"/> <path style="fill:#000000;fill-rule:evenodd;stroke:none;stroke-width:0.26458332px;stroke-linecap:butt;stroke-linejoin:miter;stroke-opacity:1;opacity:0.257" d="m 114.56794,257.3125 0,26.45833 297.87665,171.97917 45.82718,-26.45833 v -26.45834 l -45.82718,26.45834 z" id="path4618"/> </g> </svg>